name Walk6.mot
datacolumns 19
datarows 12
range 2.42500000 2.48000000
endheader

                time	   L_ground_force_vx	   L_ground_force_vy	   L_ground_force_vz	   L_ground_force_px	   L_ground_force_py	   L_ground_force_pz	   R_ground_force_vx	   R_ground_force_vy	   R_ground_force_vz	   R_ground_force_px	   R_ground_force_py	   R_ground_force_pz	   L_ground_torque_x	   L_ground_torque_y	   L_ground_torque_z	   R_ground_torque_x	   R_ground_torque_y	   R_ground_torque_z	
          2.42500000	          5.13016694	         11.52356510	         -1.01583837	          0.24268312	          0.00000000	          0.10070486	          0.00000000	          0.00000000	          0.00000000	         -0.00000000	          0.00000000	          0.00000000	          0.00000000	          0.02969254	          0.00000000	          0.00000000	         -0.00000000	          0.00000000	
          2.43000000	          1.04556311	          2.06804561	         -0.70764571	          0.18088157	          0.00000000	          0.07528367	          0.00000000	          0.00000000	          0.00000000	         -0.00000000	          0.00000000	          0.00000000	          0.00000000	          0.03296858	          0.00000000	          0.00000000	         -0.00000000	          0.00000000	
          2.43500000	         -1.65650560	         -4.15915328	         -0.45404151	          0.12694389	          0.00000000	          0.05302752	          0.00000000	          0.00000000	          0.00000000	         -0.00000000	          0.00000000	          0.00000000	          0.00000000	          0.03246203	          0.00000000	          0.00000000	         -0.00000000	          0.00000000	
          2.44000000	         -3.25828036	         -7.82359655	         -0.25550085	          0.08231498	          0.00000000	          0.03456125	          0.00000000	          0.00000000	          0.00000000	         -0.00000000	          0.00000000	          0.00000000	          0.00000000	          0.02956984	          0.00000000	          0.00000000	         -0.00000000	          0.00000000	
          2.44500000	         -4.02777690	         -9.55478115	         -0.10797355	          0.04718520	          0.00000000	          0.01998581	          0.00000000	          0.00000000	          0.00000000	         -0.00000000	          0.00000000	          0.00000000	          0.00000000	          0.02537651	          0.00000000	          0.00000000	         -0.00000000	          0.00000000	
          2.45000000	         -4.20269167	         -9.90928864	         -0.00482774	          0.02092537	          0.00000000	          0.00905823	          0.00000000	          0.00000000	          0.00000000	         -0.00000000	          0.00000000	          0.00000000	          0.00000000	          0.02068044	          0.00000000	          0.00000000	         -0.00000000	          0.00000000	
          2.45500000	         -3.98247904	         -9.35292250	          0.06169948	          0.00243051	          0.00000000	          0.00133419	          0.00000000	          0.00000000	          0.00000000	         -0.00000000	          0.00000000	          0.00000000	          0.00000000	          0.01603336	          0.00000000	          0.00000000	          0.00000000	          0.00000000	
          2.46000000	         -3.52629500	         -8.25643260	          0.09948242	         -0.00962211	          0.00000000	         -0.00372461	          0.00000000	          0.00000000	          0.00000000	         -0.00000000	          0.00000000	          0.00000000	          0.00000000	          0.01178524	          0.00000000	          0.00000000	          0.00000000	          0.00000000	
          2.46500000	         -2.95486571	         -6.90029088	          0.11584402	         -0.01659023	          0.00000000	         -0.00667415	          0.00000000	         -0.00000000	          0.00000000	         -0.00000000	          0.00000000	          0.00000000	          0.00000000	          0.00812893	          0.00000000	          0.00000000	          0.00000000	          0.00000000	
          2.47000000	         -2.35472503	         -5.48489389	          0.11717455	         -0.01974666	          0.00000000	         -0.00803779	         -0.00000000	         -0.00000000	          0.00000000	         -0.00000000	          0.00000000	          0.00000000	          0.00000000	          0.00514131	          0.00000000	          0.00000000	          0.00000000	          0.00000000	
          2.47500000	         -1.78363616	         -4.14343843	          0.10876069	         -0.02020910	          0.00000000	         -0.00827657	         -0.00000000	         -0.00000000	          0.00000000	         -0.00000000	          0.00000000	          0.00000000	          0.00000000	          0.00281879	          0.00000000	          0.00000000	          0.00000000	          0.00000000	
          2.48000000	         -1.27634388	         -2.95549315	          0.09476340	         -0.01890736	          0.00000000	         -0.00777512	         -0.00000000	         -0.00000000	         -0.00000000	         -0.00000000	          0.00000000	          0.00000000	          0.00000000	          0.00110647	          0.00000000	          0.00000000	          0.00000000	          0.00000000	
